<svg xmlns="http://www.w3.org/2000/svg" width="16.563" height="16.563" viewBox="0 0 16.563 16.563">
  <path id="Path_3" data-name="Path 3" d="M14.5,16.563H10.9A2.063,2.063,0,0,1,8.841,14.5V10.9A2.063,2.063,0,0,1,10.9,8.841h3.6A2.063,2.063,0,0,1,16.563,10.9v3.6A2.063,2.063,0,0,1,14.5,16.563Zm.825-5.3a1.179,1.179,0,0,0-1.179-1.179H11.258a1.179,1.179,0,0,0-1.179,1.179v2.888a1.179,1.179,0,0,0,1.179,1.179h2.888a1.179,1.179,0,0,0,1.179-1.179ZM14.5,7.721H2.063A2.063,2.063,0,0,1,0,5.658v-3.6A2.063,2.063,0,0,1,2.063,0H14.5a2.063,2.063,0,0,1,2.063,2.063v3.6A2.063,2.063,0,0,1,14.5,7.721Zm.825-5.3a1.179,1.179,0,0,0-1.179-1.179H2.417A1.179,1.179,0,0,0,1.238,2.417V5.3A1.179,1.179,0,0,0,2.417,6.484H14.146A1.179,1.179,0,0,0,15.325,5.3ZM2.063,8.841h3.6A2.063,2.063,0,0,1,7.721,10.9v3.6a2.063,2.063,0,0,1-2.063,2.063h-3.6A2.063,2.063,0,0,1,0,14.5V10.9A2.063,2.063,0,0,1,2.063,8.841Zm-.825,5.3a1.179,1.179,0,0,0,1.179,1.179H5.3a1.179,1.179,0,0,0,1.179-1.179V11.258A1.179,1.179,0,0,0,5.3,10.079H2.417a1.179,1.179,0,0,0-1.179,1.179Z" fill="#fff" fill-rule="evenodd"/>
</svg>
