<svg xmlns="http://www.w3.org/2000/svg" width="13.876" height="20.995" viewBox="0 0 13.876 20.995">
  <g id="Group_70" data-name="Group 70" transform="translate(-1140 -143)">
    <g id="Group_64" data-name="Group 64" transform="translate(1140 143)">
      <path id="Path_48" data-name="Path 48" d="M380.349,571.993a4.874,4.874,0,0,1-1.733,3.624c-.68.615-1.494,1.086-2.143,1.729a10.087,10.087,0,0,0-1.747,2.177c-.593,1.064-1.278,1.5-2.407,1.2a1.726,1.726,0,0,1-1.183-2.184,9.343,9.343,0,0,1,1.733-2.73c.613-.717,1.5-1.194,2.175-1.863,1.23-1.212,1.294-2.8.228-3.749a3.173,3.173,0,0,0-4.326.44,13.343,13.343,0,0,0-.764,1.408,1.954,1.954,0,0,1-2.567,1.114c-.983-.363-1.374-1.171-1.008-2.473.661-2.356,2.463-3.556,4.679-4.118a8.62,8.62,0,0,1,6.448.881A4.956,4.956,0,0,1,380.349,571.993Z" transform="translate(-366.473 -566.292)" fill="#565656"/>
      <path id="Path_49" data-name="Path 49" d="M384.735,639.6a2.314,2.314,0,0,1,2.314-2.328,2.38,2.38,0,0,1,2.327,2.345,2.357,2.357,0,0,1-2.343,2.32A2.3,2.3,0,0,1,384.735,639.6Z" transform="translate(-380.533 -620.938)" fill="#565656"/>
    </g>
  </g>
</svg>
