<svg xmlns="http://www.w3.org/2000/svg" width="14.216" height="16" viewBox="0 0 14.216 16">
  <g id="Group_5" data-name="Group 5" transform="translate(345.119 -407.402)">
    <path id="Path_20" data-name="Path 20" d="M-318.91,567.679v-.385c0-1.317,0-2.635,0-3.952a.877.877,0,0,1,1.082-.959.832.832,0,0,1,.7.908c.007,1.05,0,2.1.005,3.15,0,.678,0,1.355,0,2.033s-.3,1-1,1q-5.212.007-10.424,0c-.729,0-1.016-.3-1.018-1.036q-.007-2.563,0-5.126a.866.866,0,0,1,.875-.956.851.851,0,0,1,.9.926c.013,1.355.007,2.711.008,4.066,0,.1,0,.205,0,.326Z" transform="translate(-14.66 -146.079)" fill="#fff"/>
    <path id="Path_21" data-name="Path 21" d="M-338.027,409.537c-.666.674-1.319,1.341-1.978,2q-1.779,1.785-3.563,3.565a.869.869,0,0,1-1.277.036.852.852,0,0,1,.024-1.273q2.446-2.455,4.9-4.9c.412-.412.821-.827,1.236-1.234a.864.864,0,0,1,1.356,0q3.051,3.045,6.1,6.1a.876.876,0,0,1-.33,1.54.887.887,0,0,1-.925-.3q-2.672-2.674-5.346-5.345C-337.886,409.664-337.942,409.616-338.027,409.537Z" transform="translate(0 0)" fill="#fff"/>
  </g>
</svg>
