<svg xmlns="http://www.w3.org/2000/svg" width="9.552" height="5.307" viewBox="0 0 9.552 5.307">
  <g id="Vector_Smart_Object1" data-name="Vector Smart Object1" transform="translate(-46 43.135) rotate(-90)">
    <g id="Vector_Smart_Object1-2" data-name="Vector Smart Object1" transform="translate(37.883 46)">
      <g id="Group_1" data-name="Group 1">
        <path id="Path_1" data-name="Path 1" d="M34.455,63.194l4.294,4.177,0,0a.447.447,0,0,0,.639.032.465.465,0,0,0,.032-.649L35.4,62.887l4.023-4.146,0,0a.465.465,0,0,0-.035-.649.447.447,0,0,0-.639.036l-4.294,4.453a.473.473,0,0,0,0,.615Z" transform="translate(-34.341 -57.972)" fill="#3f3f3f"/>
      </g>
    </g>
    <path id="Color_Overlay" data-name="Color Overlay" d="M4.5,9.4l0,0L.116,5.222a.466.466,0,0,1,0-.615L4.5.153A.463.463,0,0,1,5.153.117a.458.458,0,0,1,.036.649l0,0L1.079,4.914l4.108,3.87A.461.461,0,0,1,4.5,9.4Z" transform="translate(37.828 46)" fill="#3f3f3f"/>
  </g>
</svg>
