<svg xmlns="http://www.w3.org/2000/svg" width="14.607" height="18.894" viewBox="0 0 14.607 18.894">
  <path id="Path_22" data-name="Path 22" d="M14.809,16.189a2.753,2.753,0,0,1-2.927,2.863c-2.931-.017-5.863,0-8.794,0A2.724,2.724,0,0,1,.251,16.8a1.718,1.718,0,0,1-.034-.322c0-3.632-.023-7.264,0-10.9A2.7,2.7,0,0,1,3.269,2.946V4.194c-.2.022-.378.035-.556.065a1.4,1.4,0,0,0-1.245,1.4c-.023.465-.021.932-.021,1.4,0,2.982,0,5.963.007,8.945a2.36,2.36,0,0,0,.159.916,1.3,1.3,0,0,0,1.2.845c.259.007.519.012.778.012,2.769,0,5.539-.006,8.308.005a1.44,1.44,0,0,0,1.436-.747,2.072,2.072,0,0,0,.224-.9c.007-3.415-.02-6.831-.008-10.246A1.515,1.515,0,0,0,11.928,4.24a1.821,1.821,0,0,1-.2-.02V2.985a2.623,2.623,0,0,1,2.886,1.778,4.6,4.6,0,0,1,.193,1.31Q14.825,11.131,14.809,16.189ZM3.151,15.924V15.29h8.685v.634Zm-.007-3.019h8.694v.646H3.144Zm8.708-5.536c0,1.062-.006,2.123.007,3.185,0,.252-.089.306-.321.305q-4.037-.01-8.073,0c-.252,0-.335-.068-.331-.329.014-1.1.006-2.21.007-3.315,0-.084.011-.168.025-.36.154.125.244.19.324.266.485.463.973.923,1.448,1.4a.3.3,0,0,0,.444.049c.36-.239.726-.47,1.107-.674a.728.728,0,0,1,.477-.069c.858.216,1.707.468,2.565.683a.62.62,0,0,0,.459-.091C10.5,8.039,11,7.633,11.5,7.238c.082-.065.17-.123.314-.227C11.83,7.172,11.852,7.271,11.852,7.369ZM10.358,5.124a2,2,0,0,1-.45.047q-2.418,0-4.835,0c-.817,0-1.187-.375-1.19-1.193,0-.228-.006-.456,0-.683a1.017,1.017,0,0,1,1.033-1.03c.17,0,.34,0,.53,0A2.062,2.062,0,0,1,7.461.159,2.126,2.126,0,0,1,9.6,2.254c.172,0,.352,0,.532,0a.965.965,0,0,1,.982.957c.011.325.008.651,0,.976A.957.957,0,0,1,10.358,5.124ZM7.506,1.13a1.069,1.069,0,0,0-1.1,1.1H8.568A1.056,1.056,0,0,0,7.506,1.13Z" transform="translate(-0.207 -0.158)" fill="#fff" fill-rule="evenodd"/>
</svg>
