<svg xmlns="http://www.w3.org/2000/svg" width="24.005" height="24" viewBox="0 0 24.005 24">
  <path id="Path_19" data-name="Path 19" d="M-403.869,379c0-.348,0-.7,0-1.043,0-.443.21-.647.658-.651.305,0,.611,0,.916,0a.763.763,0,0,0,.771-.51c.377-.943.754-1.886,1.125-2.831a.768.768,0,0,0-.177-.868c-.23-.238-.469-.466-.7-.7a.562.562,0,0,1,0-.906q.762-.766,1.529-1.529a.558.558,0,0,1,.887-.008c.213.207.418.422.631.628a.771.771,0,0,0,.911.161c1.066-.458,2.131-.917,3.2-1.369a.834.834,0,0,0,.571-.864c-.01-.279-.005-.56,0-.839a.565.565,0,0,1,.614-.62q1.094-.007,2.188,0a.561.561,0,0,1,.631.626c0,.288,0,.577,0,.865a.81.81,0,0,0,.564.816q1.395.546,2.783,1.108a.785.785,0,0,0,.908-.185c.225-.218.441-.447.667-.664a.554.554,0,0,1,.854,0q.788.777,1.565,1.565a.556.556,0,0,1,0,.87c-.188.2-.385.383-.575.577a.76.76,0,0,0-.174.95c.453,1.059.911,2.115,1.358,3.176a.825.825,0,0,0,.85.553c.288-.005.577-.007.865,0a.538.538,0,0,1,.571.555q.018,1.157,0,2.315a.538.538,0,0,1-.6.552c-.28,0-.56,0-.84,0a.841.841,0,0,0-.855.586c-.36.931-.735,1.857-1.117,2.779a.835.835,0,0,0,.2,1c.21.209.431.409.635.624a.554.554,0,0,1-.009.871q-.769.778-1.547,1.547a.569.569,0,0,1-.907-.016c-.2-.2-.39-.4-.591-.6a.779.779,0,0,0-.912-.17c-1.051.448-2.1.9-3.155,1.34a.813.813,0,0,0-.548.8c0,.314,0,.627,0,.941a.552.552,0,0,1-.6.6q-1.107.009-2.213,0a.564.564,0,0,1-.619-.616c-.006-.322,0-.644,0-.967a.74.74,0,0,0-.486-.736q-1.457-.6-2.923-1.168a.749.749,0,0,0-.843.179c-.243.236-.477.482-.722.717a.566.566,0,0,1-.908-.005q-.767-.762-1.529-1.529a.556.556,0,0,1,0-.885c.22-.224.446-.442.665-.667a.739.739,0,0,0,.165-.865q-.683-1.613-1.368-3.225a.792.792,0,0,0-.815-.527q-.445.012-.89,0c-.466-.013-.662-.217-.664-.678C-403.871,379.715-403.869,379.359-403.869,379Zm15.918.052a3.914,3.914,0,0,0-3.922-3.926,3.916,3.916,0,0,0-3.914,3.909,3.916,3.916,0,0,0,3.9,3.925A3.914,3.914,0,0,0-387.951,379.055Z" transform="translate(403.87 -367.046)" fill="#565656"/>
</svg>
