<svg xmlns="http://www.w3.org/2000/svg" width="16.218" height="16.229" viewBox="0 0 16.218 16.229">
  <path id="Path_23" data-name="Path 23" d="M-181.824,504.357c.813,0,1.573.01,2.331-.011.105,0,.245-.14.3-.25a2.467,2.467,0,0,1,2.59-1.333,2.438,2.438,0,0,1,1.995,1.985,2.428,2.428,0,0,1-1.58,2.714,2.4,2.4,0,0,1-2.947-1.152.527.527,0,0,0-.577-.34c-.693.023-1.387.007-2.138.007,0,.781.007,1.524,0,2.266a2.425,2.425,0,0,1-2.547,2.595,5.124,5.124,0,0,1-.569,0,1.337,1.337,0,0,0-1.506.679,2.234,2.234,0,0,1-2.771.774,2.453,2.453,0,0,1-1.537-2.394,2.436,2.436,0,0,1,1.9-2.24,2.364,2.364,0,0,1,2.639,1.19.6.6,0,0,0,.67.378c.379-.023.759-.005,1.139-.007.655,0,.953-.3.956-.951q.016-4.008.024-8.015a2.429,2.429,0,0,1,2.543-2.6c.43,0,.862-.016,1.291.007a.576.576,0,0,0,.6-.318,2.383,2.383,0,0,1,2.5-1.048,2.424,2.424,0,0,1,1.91,1.977,2.422,2.422,0,0,1-1.7,2.74,2.4,2.4,0,0,1-2.915-1.37.5.5,0,0,0-.578-.374c-.4.022-.811,0-1.215.012a.755.755,0,0,0-.8.708C-181.838,501.43-181.824,502.87-181.824,504.357Zm5.625-5.664a.782.782,0,0,0-.77-.809.791.791,0,0,0-.835.787.814.814,0,0,0,.775.817A.8.8,0,0,0-176.2,498.693Zm0,6.455a.8.8,0,0,0-.8-.786.8.8,0,0,0-.8.822.8.8,0,0,0,.8.783A.784.784,0,0,0-176.2,505.148ZM-189.146,510a.784.784,0,0,0,.746.832.794.794,0,0,0,.855-.766.8.8,0,0,0-.791-.836A.785.785,0,0,0-189.146,510Z" transform="translate(190.787 -496.246)" fill="#fff"/>
</svg>
