<svg xmlns="http://www.w3.org/2000/svg" width="7.281" height="13.107" viewBox="0 0 7.281 13.107">
  <g id="Vector_Smart_Object1" data-name="Vector Smart Object1" transform="translate(45.11 59.107) rotate(180)">
    <g id="Vector_Smart_Object1-2" data-name="Vector Smart Object1" transform="translate(37.903 46)">
      <g id="Group_1" data-name="Group 1">
        <path id="Path_1" data-name="Path 1" d="M34.5,65.137l5.892,5.731,0,0a.614.614,0,0,0,.877.044.638.638,0,0,0,.043-.891l-5.521-5.31,5.521-5.689,0,0a.638.638,0,0,0-.048-.891.614.614,0,0,0-.876.05L34.5,64.293a.649.649,0,0,0,0,.844Z" transform="translate(-34.341 -57.972)" fill="#3f3f3f"/>
      </g>
    </g>
    <path id="Color_Overlay" data-name="Color Overlay" d="M6.178,12.9l0,0L.16,7.165a.639.639,0,0,1,0-.844L6.176.21A.636.636,0,0,1,7.07.16a.629.629,0,0,1,.049.891l0,0L1.481,6.742l5.637,5.31a.632.632,0,0,1-.94.847Z" transform="translate(37.828 46)" fill="#3f3f3f"/>
  </g>
</svg>
