<svg xmlns="http://www.w3.org/2000/svg" width="12.4" height="13.619" viewBox="0 0 12.4 13.619">
  <g id="Group_14" data-name="Group 14" transform="translate(434.25 -407.015)">
    <path id="Path_34" data-name="Path 34" d="M-431.146,408.247c0-.193,0-.369,0-.545a.631.631,0,0,1,.625-.688.628.628,0,0,1,.622.689c0,.175,0,.351,0,.535h3.707c0-.193,0-.38,0-.566a.624.624,0,0,1,.62-.657.62.62,0,0,1,.624.651c0,.187,0,.374,0,.58.373,0,.731.013,1.088,0a1.981,1.981,0,0,1,1.878,1.264,1.917,1.917,0,0,1,.125.648q.012,4.294,0,8.588a1.961,1.961,0,0,1-1.887,1.888c-1.991,0-3.982,0-5.973,0-.856,0-1.711,0-2.567,0a1.966,1.966,0,0,1-1.962-1.954c0-2.806.022-5.612-.01-8.417a2.032,2.032,0,0,1,2.031-2.019C-431.868,408.266-431.515,408.247-431.146,408.247ZM-433,413.214c0,.076,0,.143,0,.21q0,1.959,0,3.919c0,.473,0,.947,0,1.42.005.45.194.632.641.636h5.529c1.033,0,2.065,0,3.1,0,.241,0,.481-.036.579-.3a1.135,1.135,0,0,0,.063-.385q.005-2.661,0-5.322c0-.055-.005-.111-.008-.175Zm8.055-3.7c0,.2,0,.388,0,.576a.623.623,0,0,1-.482.625.622.622,0,0,1-.765-.615c0-.2,0-.394,0-.595h-3.7c0,.184,0,.36,0,.536a.63.63,0,0,1-.623.689.62.62,0,0,1-.623-.669c0-.181,0-.362,0-.565-.419,0-.817,0-1.214,0-.465,0-.64.177-.643.646,0,.553,0,1.106,0,1.66,0,.054.007.109.01.158h9.9v-.233c0-.519,0-1.038,0-1.557a1.427,1.427,0,0,0-.028-.271.412.412,0,0,0-.4-.379C-423.985,409.5-424.452,409.51-424.945,409.51Z" transform="translate(0 0)" fill="#3f3f3f"/>
    <rect id="Rectangle_10" data-name="Rectangle 10" width="2.019" height="1.925" transform="translate(-431.721 414.017)" fill="#3f3f3f"/>
    <rect id="Rectangle_11" data-name="Rectangle 11" width="2.019" height="1.925" transform="translate(-431.721 416.618)" fill="#3f3f3f"/>
    <rect id="Rectangle_12" data-name="Rectangle 12" width="2.019" height="1.925" transform="translate(-429.018 414.017)" fill="#3f3f3f"/>
    <rect id="Rectangle_13" data-name="Rectangle 13" width="2.019" height="1.925" transform="translate(-429.018 416.618)" fill="#3f3f3f"/>
    <rect id="Rectangle_14" data-name="Rectangle 14" width="2.019" height="1.925" transform="translate(-426.315 414.017)" fill="#3f3f3f"/>
    <rect id="Rectangle_15" data-name="Rectangle 15" width="2.019" height="1.925" transform="translate(-426.315 416.618)" fill="#3f3f3f"/>
  </g>
</svg>
