<svg xmlns="http://www.w3.org/2000/svg" width="35.623" height="40.782" viewBox="0 0 35.623 40.782">
  <g id="Group_105" data-name="Group 105" transform="translate(-328 -254)">
    <path id="Path_78" data-name="Path 78" d="M913.139,179.524H882V155.981h-1.184c-.919,0-1.839-.013-2.758,0-.369.007-.529-.1-.528-.5q.013-4.475-.01-8.949c0-.355.166-.391.448-.389,1.145.009,2.29-.014,3.434.017.452.012.595-.113.589-.579-.025-2.046-.013-4.093-.011-6.14,0-.221.019-.442.03-.7h.615q11.367,0,22.733-.009a1.036,1.036,0,0,1,.877.406c2.193,2.526,4.407,5.033,6.6,7.561a1.29,1.29,0,0,1,.3.774q.022,15.763.013,31.527Zm-29.012-33.371h.669c4.424,0,8.848.007,13.271-.007.448,0,.592.108.588.578q-.032,4.319,0,8.639c0,.517-.162.63-.65.628-4.406-.018-8.813-.011-13.219-.009-.217,0-.433.019-.651.03v21.437h26.886v-27.7h-8.179v-.681c0-2.567-.008-5.133.008-7.7,0-.408-.117-.541-.53-.536-1.7.02-3.4.009-5.094.009h-13.1Zm26.583,1.522.066-.129-5.8-6.62v6.749Zm-24.446,3.562h0c0,.692.008,1.384,0,2.076-.005.3.078.45.408.441.64-.017,1.283.032,1.92-.019a1.955,1.955,0,0,0,1.807-1.182,3.386,3.386,0,0,0,.125-2.138,1.809,1.809,0,0,0-1.645-1.5,20.028,20.028,0,0,0-2.329-.068c-.094,0-.262.235-.267.367C886.25,149.886,886.264,150.562,886.264,151.236Zm-3.4.748c.5,0,.914.022,1.324,0a1.414,1.414,0,0,0,1.457-1.439,1.378,1.378,0,0,0-1.283-1.637,17.384,17.384,0,0,0-2.329-.06c-.108,0-.3.219-.307.34-.022,1.4-.008,2.8-.021,4.2,0,.421.273.375.526.357s.639.144.633-.36C882.858,152.955,882.862,152.525,882.862,151.985Zm11.832-2.193c.16-.957.16-.958-.721-.963-.746,0-1.491.008-2.237-.01-.338-.008-.456.116-.453.454.014,1.335.022,2.671,0,4.005-.007.421.176.487.531.48s.666,0,.633-.505a6.283,6.283,0,0,1,.014-1.142.478.478,0,0,1,.326-.322,10.809,10.809,0,0,1,1.3-.011c.349.01.387-.193.38-.469-.007-.26,0-.494-.368-.483s-.731-.031-1.092,0c-.478.047-.633-.154-.561-.6.022-.132.041-.263.068-.442Z" transform="translate(-549.516 115.258)" fill="#565656"/>
    <path id="Path_79" data-name="Path 79" d="M1013.595,335.743v.509q0,2.958,0,5.916c0,.718-.13.851-.834.852q-2.169,0-4.338,0c-.6,0-.749-.156-.749-.759q0-2.979,0-5.958v-.531c-.158-.011-.281-.026-.4-.026-.525,0-1.052.023-1.574-.013a2.091,2.091,0,0,1-.612-.254,1.866,1.866,0,0,1,.259-.571c1.472-1.5,2.962-2.974,4.444-4.46.836-.839.841-.849,1.68-.01,1.172,1.173,2.329,2.361,3.5,3.539.309.312.651.593.938.923a.455.455,0,1,1-.358.833C1014.913,335.763,1014.279,335.743,1013.595,335.743Z" transform="translate(-662.575 -54.459)" fill="#565656"/>
    <rect id="Rectangle_57" data-name="Rectangle 57" width="21.15" height="9.919" transform="translate(328.005 261.389)" fill="#eb2b2c"/>
    <text id="PDF" transform="translate(339 269)" fill="#fff" font-size="7" font-family="Roboto-Bold, Roboto" font-weight="700"><tspan x="-6.45" y="0">PDF</tspan></text>
  </g>
</svg>
