<svg xmlns="http://www.w3.org/2000/svg" width="17.975" height="18.361" viewBox="0 0 17.975 18.361">
  <g id="Group_8" data-name="Group 8" transform="translate(254.157 -485.052)">
    <path id="Path_26" data-name="Path 26" d="M-243.288,503.409h-6.353c-.73,0-1.46.011-2.189,0a2.234,2.234,0,0,1-2.32-2.327c-.009-3.72-.013-7.44.014-11.16a1.466,1.466,0,0,1,.4-.927q1.806-1.818,3.691-3.556a1.469,1.469,0,0,1,.9-.362q3.63-.043,7.262-.01a2.222,2.222,0,0,1,2.3,2.193c.036,2.26.012,4.521.01,6.781a.752.752,0,0,1-.047.17h-1.015v-.577q0-2.99,0-5.98c0-1.118-.4-1.522-1.5-1.523q-3.1,0-6.194,0c-.173,0-.347.015-.576.025,0,.542.005,1.054,0,1.565a2.3,2.3,0,0,1-2.365,2.416c-.581.017-1.164,0-1.774,0-.01.236-.025.409-.025.583q0,5.073,0,10.145c0,1.056.424,1.473,1.5,1.474,2.154,0,4.308.017,6.461-.011a1.29,1.29,0,0,1,1.312.568A3.374,3.374,0,0,0-243.288,503.409Z" fill="#fff"/>
    <path id="Path_27" data-name="Path 27" d="M-152.178,585.811a3.938,3.938,0,0,1-3.915,4.012A3.949,3.949,0,0,1-160.1,585.9a3.933,3.933,0,0,1,3.916-4.008A3.936,3.936,0,0,1-152.178,585.811Zm-4.471-.6V588.3h1.058v-3.064l.783.734.689-.63-2.011-2.016-2.116,1.94.753.753Z" transform="translate(-84.005 -86.498)" fill="#fff"/>
    <path id="Path_28" data-name="Path 28" d="M-227.772,547.04c-1.388,0-2.775-.005-4.163,0-.4,0-.757-.082-.749-.544s.37-.532.766-.531q4.163.01,8.325,0c.392,0,.765.056.774.519.01.5-.38.558-.792.556C-225,547.034-226.384,547.04-227.772,547.04Z" transform="translate(-19.179 -54.408)" fill="#fff"/>
    <path id="Path_29" data-name="Path 29" d="M-227.718,565.972c1.37,0,2.74.005,4.109,0,.41,0,.8.048.8.55-.006.462-.376.526-.77.525q-4.163-.009-8.325,0c-.4,0-.764-.07-.771-.527-.008-.5.389-.55.8-.548C-230.493,565.977-229.105,565.972-227.718,565.972Z" transform="translate(-19.185 -72.272)" fill="#fff"/>
    <path id="Path_30" data-name="Path 30" d="M-224.721,586.009c-.237.343-.4.616-.6.858a.579.579,0,0,1-.382.2c-2.131.012-4.261.021-6.391-.015a.776.776,0,0,1-.552-.492c-.071-.336.194-.55.555-.55C-229.666,586.008-227.236,586.009-224.721,586.009Z" transform="translate(-19.198 -90.171)" fill="#fff"/>
    <path id="Path_31" data-name="Path 31" d="M-226.1,627.072c-2.151,0-4.263,0-6.375,0a.5.5,0,0,1-.563-.56.5.5,0,0,1,.567-.5c2.022,0,4.044,0,6.093,0Z" transform="translate(-18.866 -125.894)" fill="#fff"/>
    <path id="Path_32" data-name="Path 32" d="M-226.018,606l-.173,1.066h-3.747c-.764,0-1.531.034-2.291-.025-.205-.016-.388-.318-.582-.489.178-.184.354-.524.535-.528C-230.2,605.988-228.121,606-226.018,606Z" transform="translate(-19.067 -108.026)" fill="#fff"/>
    <path id="Path_33" data-name="Path 33" d="M-192.194,525.982c.729,0,1.459.005,2.188,0,.386,0,.7.108.695.543s-.328.531-.71.53q-2.241-.009-4.483,0c-.383,0-.694-.1-.689-.544s.327-.531.7-.528C-193.724,525.987-192.958,525.982-192.194,525.982Z" transform="translate(-52.665 -36.556)" fill="#fff"/>
  </g>
</svg>
